Coordinates
version=1
nRows=33
nColumns=34
inDegrees=no

Units are S.I. units (second, meters, Newtons, ...)
If the header above contains a line with 'inDegrees', this indicates whether rotational values are in degrees (yes) or radians (no).

endheader
time	pelvis_tilt	pelvis_list	pelvis_rotation	pelvis_tx	pelvis_ty	pelvis_tz	hip_flexion_r	hip_adduction_r	hip_rotation_r	knee_angle_r	ankle_angle_r	subtalar_angle_r	mtp_angle_r	hip_flexion_l	hip_adduction_l	hip_rotation_l	knee_angle_l	ankle_angle_l	subtalar_angle_l	mtp_angle_l	lumbar_extension	lumbar_bending	lumbar_rotation	arm_flex_r	arm_add_r	arm_rot_r	elbow_flex_r	pro_sup_r	arm_flex_l	arm_add_l	arm_rot_l	elbow_flex_l	pro_sup_l
0.44	0.0135072	-0.039469	-0.0798026	0.388093	0.947163	-0.223881	-0.114051	0.0263919	-0.315384	0.241928	0.440591	0.153811	0	0.456889	-0.151777	-0.312826	0.174931	0.117241	0.0892878	0	-0.128433	0.0596256	0.0651669	0.266279	-0.290635	-0.0818189	0.829033	2.09	-0.335872	-0.0857516	-0.554745	0.373774	2.09
0.45	0.0132757	-0.0396987	-0.0856337	0.400136	0.945033	-0.223842	-0.126484	0.0240166	-0.310893	0.244901	0.447604	0.155297	0	0.456733	-0.151617	-0.312455	0.149745	0.123517	0.0799121	0	-0.128944	0.0582491	0.0691957	0.275441	-0.290326	-0.0758078	0.837508	2.09	-0.337835	-0.0863343	-0.554913	0.37288	2.09
0.46	0.0126753	-0.0392188	-0.0916383	0.412305	0.942925	-0.223871	-0.138363	0.0204141	-0.307	0.248257	0.453759	0.157704	0	0.456461	-0.150862	-0.309743	0.12866	0.128038	0.0656867	0	-0.128869	0.0559422	0.0730944	0.282839	-0.289202	-0.070931	0.846167	2.09	-0.338857	-0.0868688	-0.556961	0.372241	2.09
0.47	0.0117462	-0.0381288	-0.0978717	0.42462	0.940861	-0.223948	-0.149793	0.0157661	-0.303321	0.251843	0.458662	0.160522	0	0.456297	-0.149908	-0.306123	0.112598	0.131937	0.050505	0	-0.128185	0.0527971	0.076919	0.288363	-0.287325	-0.0670355	0.855066	2.09	-0.339031	-0.0875636	-0.559742	0.371681	2.09
0.48	0.0106482	-0.0364587	-0.104342	0.437093	0.938871	-0.224063	-0.16095	0.0101505	-0.299465	0.255595	0.461958	0.163195	0	0.456221	-0.148878	-0.302378	0.102069	0.135974	0.0369968	0	-0.127036	0.0488265	0.0806771	0.291988	-0.284723	-0.0640209	0.864206	2.09	-0.338439	-0.0884971	-0.562893	0.371329	2.09
0.49	0.0094082	-0.0342832	-0.110932	0.449724	0.936969	-0.224224	-0.171787	0.00372014	-0.295046	0.259574	0.463223	0.164943	0	0.456404	-0.147902	-0.299801	0.0974972	0.140931	0.0284114	0	-0.125435	0.044133	0.0842657	0.293746	-0.281435	-0.0617437	0.873433	2.09	-0.337151	-0.0897757	-0.565758	0.371194	2.09
0.5	0.00833734	-0.0313527	-0.117643	0.462516	0.935188	-0.224452	-0.182404	-0.003928	-0.290147	0.264137	0.462527	0.166052	0	0.45613	-0.146331	-0.296732	0.0978466	0.144791	0.0215461	0	-0.12372	0.0384319	0.0878202	0.293483	-0.277541	-0.0603806	0.883026	2.09	-0.335087	-0.0914314	-0.568395	0.371441	2.09
0.51	0.00738367	-0.0276382	-0.124226	0.475459	0.933536	-0.224784	-0.192489	-0.0128317	-0.284856	0.269678	0.459603	0.166229	0	0.455413	-0.143885	-0.29328	0.102481	0.145983	0.0159579	0	-0.121815	0.0317564	0.0911647	0.291191	-0.273139	-0.059861	0.892854	2.09	-0.332239	-0.0935432	-0.570189	0.371953	2.09
0.52	0.00663379	-0.0229244	-0.130558	0.48855	0.932034	-0.225258	-0.201795	-0.0232383	-0.278912	0.276679	0.454142	0.164861	0	0.453911	-0.139991	-0.288993	0.110101	0.141832	0.00896433	0	-0.119797	0.0239153	0.0943303	0.28671	-0.268338	-0.0603724	0.903095	2.09	-0.328497	-0.0961786	-0.570706	0.372621	2.09
0.53	0.00590358	-0.0173402	-0.136276	0.501781	0.930681	-0.225928	-0.209793	-0.0350414	-0.272943	0.28577	0.446057	0.162396	0	0.451948	-0.134586	-0.284435	0.119962	0.131116	0.000431167	0	-0.117447	0.0151711	0.0968876	0.280233	-0.263312	-0.0613462	0.913267	2.09	-0.323923	-0.0992852	-0.569479	0.373302	2.09
0.54	0.00526609	-0.0108111	-0.141263	0.515154	0.929503	-0.226829	-0.216166	-0.0483651	-0.26704	0.297609	0.435123	0.158756	0	0.449342	-0.127429	-0.279719	0.130887	0.112861	-0.0110646	0	-0.114848	0.00550659	0.0987805	0.271694	-0.258172	-0.062819	0.92346	2.09	-0.318456	-0.10278	-0.566508	0.374019	2.09
0.55	0.00493067	-0.00335664	-0.145266	0.528683	0.928538	-0.228018	-0.220925	-0.0628184	-0.259447	0.312368	0.419989	0.150577	0	0.444768	-0.116989	-0.264219	0.1391	0.0794958	-0.0446844	0	-0.112239	-0.00498488	0.0996707	0.261213	-0.25299	-0.0646968	0.933549	2.09	-0.312134	-0.106216	-0.56355	0.375352	2.09
0.56	0.00441072	0.00447017	-0.148299	0.542343	0.927776	-0.229441	-0.22281	-0.0786206	-0.254907	0.331839	0.40252	0.145234	0	0.441712	-0.107637	-0.264927	0.151842	0.0538167	-0.0523655	0	-0.109178	-0.0155939	0.0997053	0.248764	-0.247912	-0.0666422	0.943428	2.09	-0.304951	-0.110357	-0.5554	0.375747	2.09
0.57	0.00412929	0.0126171	-0.150169	0.556144	0.927272	-0.231131	-0.222135	-0.0949681	-0.249739	0.355778	0.38022	0.135917	0	0.43797	-0.097166	-0.264202	0.164295	0.025616	-0.0641402	0	-0.106185	-0.0262907	0.0985022	0.234612	-0.242808	-0.0688566	0.952938	2.09	-0.297016	-0.114303	-0.546772	0.376728	2.09
0.58	0.00409242	0.0207239	-0.150685	0.570063	0.927048	-0.233074	-0.218514	-0.11143	-0.244532	0.384801	0.352421	0.122258	0	0.433946	-0.0862452	-0.263394	0.177461	-0.000393986	-0.0759855	0	-0.103383	-0.0366544	0.0958287	0.218983	-0.237694	-0.0711478	0.961853	2.09	-0.28838	-0.118156	-0.536514	0.377996	2.09
0.59	0.0043296	0.0286137	-0.149716	0.58406	0.927118	-0.235248	-0.21154	-0.127824	-0.23988	0.419495	0.318422	0.103575	0	0.429926	-0.0752703	-0.263327	0.192223	-0.0204785	-0.0851765	0	-0.100918	-0.0465154	0.09149	0.202162	-0.23249	-0.0734696	0.969887	2.09	-0.279058	-0.121904	-0.524623	0.37958	2.09
0.6	0.00476616	0.0362366	-0.14723	0.598076	0.927482	-0.23762	-0.20074	-0.143817	-0.235029	0.460078	0.276579	0.0765821	0	0.426114	-0.0643676	-0.26398	0.208975	-0.0327534	-0.0909762	0	-0.0988097	-0.0558429	0.0854539	0.184409	-0.227097	-0.0758888	0.976726	2.09	-0.268983	-0.125688	-0.510557	0.381315	2.09
0.61	0.0055306	0.0438421	-0.143082	0.612053	0.928132	-0.240195	-0.186011	-0.160442	-0.232863	0.506967	0.227487	0.044215	0	0.422462	-0.0533926	-0.266474	0.227995	-0.0351686	-0.0904156	0	-0.0972704	-0.0649541	0.0773392	0.166233	-0.221442	-0.0780356	0.981838	2.09	-0.258215	-0.129272	-0.496218	0.383884	2.09
0.62	0.00649652	0.0517924	-0.137422	0.625933	0.929033	-0.242957	-0.167225	-0.178112	-0.232657	0.559604	0.169891	0.00386851	0	0.418682	-0.0418233	-0.270078	0.248242	-0.029123	-0.0848983	0	-0.0961678	-0.0742307	0.0672897	0.147871	-0.215448	-0.0800109	0.984907	2.09	-0.246697	-0.132822	-0.481328	0.387269	2.09
0.63	0.00746821	0.0601911	-0.130542	0.639661	0.93014	-0.245871	-0.144528	-0.196625	-0.232807	0.616599	0.101934	-0.0480822	0	0.414508	-0.0296635	-0.275229	0.268689	-0.0156145	-0.0737479	0	-0.0953128	-0.0837683	0.0556369	0.129531	-0.209083	-0.0819325	0.985674	2.09	-0.234377	-0.136472	-0.465654	0.391443	2.09
0.64	0.00847002	0.0694954	-0.122595	0.653217	0.931407	-0.248941	-0.118718	-0.217224	-0.234912	0.676464	0.0256288	-0.107807	0	0.409043	-0.0157926	-0.279528	0.287064	0.00144727	-0.0615857	0	-0.0946895	-0.0940341	0.0424649	0.111415	-0.202312	-0.0838706	0.983963	2.09	-0.221324	-0.140171	-0.450091	0.396741	2.09
0.65	0.00937311	0.0793804	-0.113916	0.666572	0.932792	-0.252106	-0.0906658	-0.239083	-0.237455	0.736792	-0.0581557	-0.175928	0	0.401904	-0.000443221	-0.282337	0.302159	0.0201725	-0.0496142	0	-0.0942132	-0.104672	0.0282673	0.0935867	-0.195135	-0.0861633	0.979778	2.09	-0.207446	-0.144054	-0.434141	0.402874	2.09
0.66	0.0101549	0.0890259	-0.104897	0.679699	0.934262	-0.255263	-0.0613382	-0.260639	-0.239241	0.795258	-0.146938	-0.251712	0	0.393107	0.0148553	-0.285818	0.31429	0.0416472	-0.0337907	0	-0.0939706	-0.114892	0.013436	0.0762847	-0.187535	-0.0889555	0.973029	2.09	-0.192807	-0.147668	-0.420648	0.410522	2.09
0.67	0.0110087	0.0985079	-0.0954909	0.692617	0.935824	-0.258424	-0.0319834	-0.282609	-0.242105	0.850585	-0.230193	-0.325111	0	0.381653	0.0321646	-0.281457	0.320671	0.0578786	-0.0294836	0	-0.0940983	-0.124619	-0.00146995	0.0590837	-0.179642	-0.0930827	0.964292	2.09	-0.176801	-0.15249	-0.400661	0.416733	2.09
0.68	0.0119549	0.106406	-0.0863656	0.705284	0.93746	-0.261422	-0.00284568	-0.30205	-0.243633	0.901393	-0.304453	-0.397586	0	0.368419	0.0480029	-0.275825	0.324145	0.0742357	-0.0251345	0	-0.0947675	-0.132571	-0.0161326	0.042621	-0.171433	-0.0981891	0.953137	2.09	-0.159858	-0.156989	-0.383063	0.424131	2.09
0.69	0.0130619	0.112349	-0.0779486	0.717695	0.939173	-0.264199	0.0259963	-0.318439	-0.243944	0.94734	-0.361473	-0.463481	0	0.35359	0.0618158	-0.2685	0.325098	0.089631	-0.02242	0	-0.0959795	-0.13835	-0.0299347	0.026912	-0.163047	-0.104433	0.939681	2.09	-0.141887	-0.1615	-0.365408	0.432022	2.09
0.7	0.0143556	0.116096	-0.0707832	0.729843	0.940963	-0.266694	0.0548529	-0.331251	-0.242649	0.988264	-0.395405	-0.518392	0	0.33749	0.07295	-0.26024	0.324155	0.103829	-0.021284	0	-0.0976917	-0.141748	-0.0423947	0.0121633	-0.154651	-0.111582	0.923821	2.09	-0.123092	-0.165835	-0.348365	0.440806	2.09
0.71	0.0156793	0.117441	-0.0654868	0.741715	0.94282	-0.268849	0.0844507	-0.3396	-0.238793	1.02382	-0.406935	-0.561957	0	0.320646	0.0806994	-0.252408	0.321959	0.117028	-0.0208227	0	-0.0996729	-0.142583	-0.0529398	-0.00146361	-0.146474	-0.119276	0.905477	2.09	-0.103688	-0.169874	-0.332191	0.450741	2.09
0.72	0.0167087	0.116425	-0.0625007	0.753304	0.944725	-0.270629	0.115601	-0.342871	-0.231713	1.05361	-0.401376	-0.59562	0	0.303632	0.0848281	-0.246053	0.318815	0.129326	-0.0204203	0	-0.101504	-0.140925	-0.0611318	-0.0139455	-0.138714	-0.127246	0.884655	2.09	-0.0839197	-0.173683	-0.3163	0.461841	2.09
0.73	0.0174991	0.113197	-0.0618795	0.764645	0.946693	-0.272054	0.14817	-0.341218	-0.221863	1.07743	-0.379649	-0.610865	0	0.286382	0.0855188	-0.241743	0.314693	0.140861	-0.0195244	0	-0.10323	-0.136927	-0.067078	-0.0252607	-0.131618	-0.135022	0.861469	2.09	-0.0641208	-0.177119	-0.301307	0.474372	2.09
0.74	0.0179055	0.108002	-0.0634467	0.775771	0.94871	-0.273151	0.181898	-0.334798	-0.210025	1.09497	-0.345967	-0.610865	0	0.269038	0.0830908	-0.239961	0.309602	0.151982	-0.0173112	0	-0.104684	-0.13084	-0.0709902	-0.0355573	-0.125296	-0.142473	0.836214	2.09	-0.0445791	-0.18025	-0.28699	0.488321	2.09
0.75	0.0177299	0.101053	-0.0668598	0.786705	0.950753	-0.273956	0.216376	-0.323446	-0.196891	1.10565	-0.311188	-0.610865	0	0.251782	0.0780348	-0.240192	0.303451	0.162467	-0.0144128	0	-0.105699	-0.122881	-0.0732568	-0.0449764	-0.119809	-0.149505	0.809281	2.09	-0.0255821	-0.183009	-0.274017	0.503885	2.09
0.76	0.0169824	0.0928457	-0.071463	0.797504	0.952806	-0.27456	0.250739	-0.308187	-0.183824	1.10939	-0.277573	-0.606981	0	0.234494	0.0713213	-0.241379	0.296009	0.171895	-0.0118858	0	-0.106277	-0.113498	-0.0744643	-0.0538285	-0.115135	-0.156441	0.781244	2.09	-0.00728953	-0.185466	-0.262095	0.520957	2.09
